<svg xmlns="http://www.w3.org/2000/svg" version="1.1" xmlns:xlink="http://www.w3.org/1999/xlink" xmlns:svgjs="http://svgjs.com/svgjs" width="1400" height="640" preserveAspectRatio="none" viewBox="0 0 1400 640"><g mask="url(&quot;#SvgjsMask1064&quot;)" fill="none"><rect width="1400" height="640" x="0" y="0" fill="rgba(7, 105, 207, 1)"></rect><path d="M0,440.036C83.181,451.024,161.6,406.248,235.261,366.073C313.697,323.294,397.053,279.36,439.12,200.539C482.21,119.801,491.992,20.812,466.428,-67.062C442.209,-150.312,359.951,-197.19,304.117,-263.519C247.262,-331.061,217.032,-427.336,135.222,-460.524C51.662,-494.422,-45.436,-473.187,-128.963,-439.209C-207.79,-407.143,-258.827,-336.656,-318.479,-275.963C-382.473,-210.852,-471.731,-159.816,-491.221,-70.627C-510.982,19.803,-477.326,118.88,-420.777,192.162C-368.593,259.787,-272.041,265.43,-198.444,308.785C-128.699,349.871,-80.25,429.436,0,440.036" fill="#0654a6"></path><path d="M1400 1211.249C1515.657 1215.321 1643.552 1232.629 1736.886 1164.204 1829.328 1096.433 1836.6680000000001 965.331 1880.117 859.262 1921.5819999999999 758.037 2013.815 661.554 1986.136 555.726 1958.338 449.44100000000003 1817.844 423.28499999999997 1744.661 341.349 1673.1100000000001 261.24 1667.393 110.48599999999999 1563.6390000000001 82.69600000000003 1459.32 54.754999999999995 1371.84 167.05200000000002 1275.403 215.66199999999998 1198.169 254.59300000000002 1123.342 288.708 1053.56 339.808 964.5799999999999 404.966 835.684 447.786 811.477 555.383 787.467 662.107 893.304 751.141 938.62 850.705 984.008 950.427 991.69 1073.5439999999999 1078.022 1141.008 1166.368 1210.045 1287.948 1207.304 1400 1211.249" fill="#0a7ef7"></path></g><defs><mask id="SvgjsMask1064"><rect width="1400" height="640" fill="#ffffff"></rect></mask></defs></svg>